<?xml version="1.0" encoding="utf-8"?>
<!-- Generator: Adobe Illustrator 17.1.0, SVG Export Plug-In . SVG Version: 6.00 Build 0)  -->
<!DOCTYPE svg PUBLIC "-//W3C//DTD SVG 1.1//EN" "http://www.w3.org/Graphics/SVG/1.1/DTD/svg11.dtd">
<svg version="1.1" id="Calque_1" xmlns="http://www.w3.org/2000/svg" xmlns:xlink="http://www.w3.org/1999/xlink" x="0px" y="0px"
	 viewBox="0 0 121.5 120.9" enable-background="new 0 0 121.5 120.9" xml:space="preserve">
<g>
	<polygon fill="#FFFFFF" points="69.4,91 83.4,91 83.4,29.8 69.4,29.8 	"/>
	<path fill="#FFFFFF" d="M103.8,72.2l17.6-6.6l-16.1-9.8l14-12.6L100.9,40l8.5-16.8l-18.5,3.6l1.9-18.7L76.9,18.2L71.9,0L60.7,15.1
		L49.5,0l-5,18.2L28.6,8.1l1.9,18.7l-18.5-3.6L20.6,40L2.1,43.3l14,12.6L0,65.6l17.6,6.6L6.1,87.1L25,87L19.6,105l17.5-7l1.6,18.8
		L52.5,104l8.2,16.9L69,104l13.8,12.8l1.6-18.8l17.5,7L96.5,87l18.8,0.2L103.8,72.2z M89.2,96.9l-19.8,0v6.3l-36.2-6.5l0-72.4
		l36.2-6.5V24h19.8V96.9z"/>
	<ellipse fill="#FFFFFF" cx="61.8" cy="58.8" rx="2.9" ry="3.8"/>
</g>
</svg>
