<?xml version="1.0" encoding="utf-8"?>
<!-- Generator: Adobe Illustrator 17.1.0, SVG Export Plug-In . SVG Version: 6.00 Build 0)  -->
<!DOCTYPE svg PUBLIC "-//W3C//DTD SVG 1.1//EN" "http://www.w3.org/Graphics/SVG/1.1/DTD/svg11.dtd">
<svg version="1.1" id="Calque_1" xmlns="http://www.w3.org/2000/svg" xmlns:xlink="http://www.w3.org/1999/xlink" x="0px" y="0px"
	 viewBox="0 0 91.899 53.603" enable-background="new 0 0 91.899 53.603" xml:space="preserve">
<g>
	<g opacity="0.75">
		<path fill="#1D1D1B" d="M63.714,18.143c0-6.339,5.161-11.48,11.5-11.48c6.338,0,11.48,5.142,11.48,11.48
			c0,6.358-5.143,11.499-11.48,11.499C68.875,29.643,63.714,24.501,63.714,18.143L63.714,18.143z M69.473,41.123
			c-11.5,0-21.466,7.667-40.22,7.667c-19.146,0-26.419-7.667-26.419-7.667s8.433,15.315,29.112,15.315
			c18.379,0,29.485-7.648,42.106-7.648c15.333,0,20.681,7.648,20.681,7.648S86.694,41.123,69.473,41.123L69.473,41.123z
			 M19.475,21.584l19.82-9.91l0.749,1.253l4.15,11.35c-0.393,0-22.213,13.014-26.812,15.706c3.066,0.768,6.899,1.141,11.499,1.141
			c14.92,0,24.493-4.974,33.692-6.899L44.194,4.737L44.1,4.813l-0.074-0.131c-1.029-1.703-3.216-2.339-4.992-1.441L16.054,14.722
			c-1.889,0.954-2.655,3.255-1.721,5.142C15.288,21.752,17.588,22.519,19.475,21.584L19.475,21.584z M19.475,21.584"/>
	</g>
	<g>
		<g>
			<g>
				<path fill="#FFFFFF" d="M60.879,15.309c0-6.339,5.161-11.48,11.5-11.48c6.338,0,11.48,5.142,11.48,11.48
					c0,6.358-5.143,11.499-11.48,11.499C66.04,26.808,60.879,21.666,60.879,15.309L60.879,15.309z M66.639,38.288
					c-11.5,0-21.466,7.667-40.22,7.667C7.273,45.955,0,38.288,0,38.288s8.433,15.314,29.112,15.314
					c18.379,0,29.485-7.647,42.106-7.647c15.333,0,20.681,7.647,20.681,7.647S83.859,38.288,66.639,38.288L66.639,38.288z
					 M16.64,18.749l19.82-9.91l0.749,1.253l4.15,11.35c-0.393,0-22.213,13.014-26.812,15.706c3.066,0.768,6.899,1.141,11.499,1.141
					c14.92,0,24.493-4.974,33.692-6.899L41.359,1.903l-0.094,0.076l-0.074-0.131c-1.029-1.703-3.216-2.339-4.992-1.441L13.22,11.887
					c-1.889,0.954-2.655,3.255-1.721,5.142C12.453,18.917,14.753,19.685,16.64,18.749L16.64,18.749z M16.64,18.749"/>
			</g>
		</g>
	</g>
</g>
</svg>
