<?xml version="1.0" encoding="utf-8"?>
<!-- Generator: Adobe Illustrator 18.1.0, SVG Export Plug-In . SVG Version: 6.00 Build 0)  -->
<svg version="1.1" id="Calque_1" xmlns="http://www.w3.org/2000/svg" xmlns:xlink="http://www.w3.org/1999/xlink" x="0px" y="0px"
	 viewBox="0 0 62.3 57.8" enable-background="new 0 0 62.3 57.8" xml:space="preserve">
<g id="I5ObJ4.tif_5_">
	<g>
		<path fill="#010202" d="M8.8,0c7.5,7.7,15,15.5,22.5,23.1c1.8,1.8,4,3.2,5.7,4.4C26.6,37.9,17.2,47.3,7.4,57.2
			c-1.6-2-3.7-4.6-6-7.5c6.3-6.2,13.4-13,20.7-20.2C14.2,22,7.1,15.1,0,8.3C2.7,4.9,4.7,2.5,6.7,0C7.4,0,8.1,0,8.8,0z"/>
		<path fill="#010202" d="M62.3,29.9c-5.5,5.3-11.1,10.5-16.6,15.9c-3.9,3.8-7.8,7.7-12.1,12c-2.3-2.7-4.6-5.3-7.2-8.3
			C33.1,43,40,36.2,47.6,28.8C40,21.8,32.8,15,25.6,8.4c2.8-3.5,4.8-5.9,6.8-8.4c0.7,0,1.4,0,2.1,0C43.8,9.3,53,18.5,62.3,27.8
			C62.3,28.5,62.3,29.2,62.3,29.9z"/>
	</g>
</g>
</svg>
