<?xml version="1.0" encoding="utf-8"?>
<!-- Generator: Adobe Illustrator 17.1.0, SVG Export Plug-In . SVG Version: 6.00 Build 0)  -->
<!DOCTYPE svg PUBLIC "-//W3C//DTD SVG 1.1//EN" "http://www.w3.org/Graphics/SVG/1.1/DTD/svg11.dtd">
<svg version="1.1" id="Calque_1" xmlns="http://www.w3.org/2000/svg" xmlns:xlink="http://www.w3.org/1999/xlink" x="0px" y="0px"
	 viewBox="72.7 0 715.1 625.4" enable-background="new 72.7 0 715.1 625.4" xml:space="preserve">
<path fill="#FFFFFF" d="M787.8,205.6c0,60.3-26.3,114.4-67.3,152.3l0,0L497.1,580.6c-22.4,22.4-44.8,44.8-67.3,44.8
	S385,603,362.6,580.6L139.9,357.2l0,0c-41-37.1-67.3-91.2-67.3-151.5C72.7,92,164.7,0,278.3,0c60.3,0,114.4,26.3,152.3,67.3
	C467.7,26.3,521.8,0,582.1,0C695.8,0,787.8,92,787.8,205.6"/>
<g>
	<path d="M787.8,205.6c0,60.3-26.3,114.4-67.3,152.3l0,0L497.1,580.6c-22.4,22.4-44.8,44.8-67.3,44.8S385,603,362.6,580.6
		L139.9,357.2l0,0c-41-37.1-67.3-91.2-67.3-151.5C72.7,92,164.7,0,278.3,0c60.3,0,114.4,26.3,152.3,67.3C467.7,26.3,521.8,0,582.1,0
		C695.8,0,787.8,92,787.8,205.6"/>
</g>
</svg>
