<?xml version="1.0" encoding="utf-8"?>
<!-- Generator: Adobe Illustrator 17.1.0, SVG Export Plug-In . SVG Version: 6.00 Build 0)  -->
<!DOCTYPE svg PUBLIC "-//W3C//DTD SVG 1.1//EN" "http://www.w3.org/Graphics/SVG/1.1/DTD/svg11.dtd">
<svg version="1.1" id="Calque_1" xmlns="http://www.w3.org/2000/svg" xmlns:xlink="http://www.w3.org/1999/xlink" x="0px" y="0px"
	 viewBox="0 0 85.9 88.4" enable-background="new 0 0 85.9 88.4" xml:space="preserve">
<g>
	<g>
		<path fill="#FFFFFF" d="M82.6,41.9c-1.6-4-3.3-8.5-6-11.9c-2.1-2.6-5.9-4.8-9.4-4.3c0,0-0.3,0.1-0.8,0.2c0.1,0.9,0.2,1.7,0.2,2.6
			c0,2.4-0.5,4.8-1.4,7.1c-0.9,2.2-2.2,4.1-3.9,5.8c-1.7,1.7-3.6,3-5.8,3.9c-2.2,0.9-4.6,1.4-7.1,1.4c-2.4,0-4.8-0.5-7.1-1.4
			c-2.2-0.9-4.1-2.2-5.8-3.9c-1.7-1.7-3-3.6-3.9-5.8c-0.2-0.5-0.4-1.1-0.6-1.6C17,37.1,3.8,40.1,3,40.3c-0.7,0.2-1.5,0.3-2.1,0.6
			C0.4,41.2,0,41.6,0,42.4v35.5c0,1.4,1.5,2.7,3.3,2.9l13.2,1.4l59.4,6.2c5.5,0.6,9.9-2.4,9.9-6.6c0-2.7-1.8-5.2-4.4-6.8
			c2.7-1.1,4.4-3.2,4.4-5.9c0-2.7-1.8-5.2-4.4-6.8C89.3,59.1,84.8,47.6,82.6,41.9L82.6,41.9z M65.2,81.5L7,75.4v-5.8l58.2,6.1
			c5.5,0.6,9.9,2.3,9.9,3.9C75.1,81.2,70.7,82,65.2,81.5L65.2,81.5z M65.2,69.9L7,63.8V58L65.2,64c5.5,0.6,9.9,2.3,9.9,3.9
			C75.1,69.6,70.7,70.4,65.2,69.9L65.2,69.9z M65.2,58.3L7,52.2v-5.8l58.2,6.1c5.5,0.6,9.9,2.3,9.9,3.9C75.1,58,70.7,58.8,65.2,58.3
			L65.2,58.3z M65.2,58.3"/>
		<path fill="#FFFFFF" d="M36,28.4c0,1.5,0.3,2.9,0.7,4.2c1.7,4.9,6.4,8.3,11.8,8.3c6.9,0,12.5-5.6,12.5-12.5c0-0.5,0-0.9-0.1-1.4
			c-0.7-6.3-6-11.2-12.5-11.2c-0.7,0-1.3,0.1-1.9,0.1c-0.4-0.9-0.9-1.7-1.4-2.6c-0.5-0.8-1.1-1.7-1.6-2.5c-0.7-1-1.5-1.9-2.2-2.8
			c-1.4-1.7-3-3.3-4.7-4.7c-1.5-1.2-3.1-2.4-4.9-3.2c-1-0.4-2.2-0.3-2.8,0.7c-0.5,0.9-0.3,2.3,0.7,2.8c0.8,0.4,1.6,0.8,2.4,1.3
			c0.2,0.1,0.4,0.3,0.6,0.5c0.1,0.1,0.4,0.3,0.4,0.3c0.3,0.3,0.6,0.5,1,0.8c0.8,0.7,1.6,1.5,2.4,2.2c0.8,0.8,1.6,1.7,2.3,2.6
			c0.2,0.3,0.4,0.5,0.6,0.8c0,0,0,0,0,0c0,0,0,0,0,0c0.1,0.1,0.2,0.2,0.3,0.3c0,0,0,0,0,0c0.3,0.4,0.7,0.9,1,1.3
			c0.2,0.3,0.4,0.6,0.6,1c0.4,0.6,0.8,1.3,1.2,1.9c0.1,0.2,0.2,0.3,0.3,0.5C38.7,19.4,36,23.6,36,28.4L36,28.4z M36,28.4"/>
	</g>
</g>
</svg>
