<?xml version="1.0" encoding="utf-8"?>
<!-- Generator: Adobe Illustrator 17.1.0, SVG Export Plug-In . SVG Version: 6.00 Build 0)  -->
<!DOCTYPE svg PUBLIC "-//W3C//DTD SVG 1.1//EN" "http://www.w3.org/Graphics/SVG/1.1/DTD/svg11.dtd">
<svg version="1.1" id="Calque_1" xmlns="http://www.w3.org/2000/svg" xmlns:xlink="http://www.w3.org/1999/xlink" x="0px" y="0px"
	 viewBox="67.7 62 459.2 565.1" enable-background="new 67.7 62 459.2 565.1" xml:space="preserve">
<g>
	<path d="M499.1,627.1H96.3c-16.2,0-28.6-13.1-28.6-28.6c0-41,17-91.2,46.4-133.7c24.7-35.6,54.1-61.8,86.6-77.3
		c-13.9-13.1-26.3-28.6-36.3-46.4c-15.5-28.6-24-62.6-24-96.6c0-47.9,15.5-92.8,44.1-126.8C214.6,81.3,254.8,62,297.3,62
		s82.7,19.3,112.9,54.9c28.6,34.8,44.1,79.6,44.1,126.8c0,34.8-7.7,68-24,96.6c-10.1,17.8-21.6,34-36.3,46.4
		c32.5,15.5,62.6,42.5,86.6,77.3c29.4,42.5,46.4,92,46.4,133.7C527.7,614.8,514.5,627.1,499.1,627.1 M128.7,569.9h337.8
		c-5.4-23.2-17-49.5-32.5-71.9c-24.7-36.3-55.7-59.5-87.4-66.5c-13.1-3.1-22.4-14.7-22.4-27.8v-20.9c0-10.1,5.4-20.1,14.7-24.7
		c35.6-20.1,58.8-64.9,58.8-113.6c0-68.8-44.8-124.5-99-124.5c-54.9,0-99,55.7-99,124.5c0,48.7,23.2,93.5,58.8,113.6
		c9.3,5.4,14.7,14.7,14.7,24.7v20.9c0,13.9-9.3,25.5-22.4,27.8c-31.7,7-62.6,30.2-87.4,66.5C145.7,520.4,134.2,546,128.7,569.9"/>
</g>
</svg>
