<?xml version="1.0" encoding="utf-8"?>
<!-- Generator: Adobe Illustrator 17.1.0, SVG Export Plug-In . SVG Version: 6.00 Build 0)  -->
<!DOCTYPE svg PUBLIC "-//W3C//DTD SVG 1.1//EN" "http://www.w3.org/Graphics/SVG/1.1/DTD/svg11.dtd">
<svg version="1.1" id="Calque_1" xmlns="http://www.w3.org/2000/svg" xmlns:xlink="http://www.w3.org/1999/xlink" x="0px" y="0px"
	 viewBox="72.7 0 642.4 562" enable-background="new 72.7 0 642.4 562" xml:space="preserve">
<path fill="#FFFFFF" d="M354.1,40.2V30.2c0-16.2-13.9-30.2-30.2-30.2H223.4c-16.2,0-30.2,13.9-30.2,30.2v10.1H72.7v80.4h120.6v10.1
	c0,16.2,13.9,30.2,30.2,30.2h100.5c16.2,0,30.2-13.9,30.2-30.2v-10.1h361V40.2H354.1z M233.5,40.2h80.4v80.4h-80.4V40.2z
	 M594.5,231.2c0-16.2-13.9-30.2-30.2-30.2H463.9c-16.2,0-30.2,13.9-30.2,30.2v10.1h-361v80.4h361v10.1c0,16.2,13.9,30.2,30.2,30.2
	h100.5c16.2,0,30.2-13.9,30.2-30.2v-10.1h120.6v-80.4H594.5V231.2z M473.9,241.2h80.4v80.4h-80.4V241.2z M354.1,431.4
	c0-16.2-13.9-30.2-30.2-30.2H223.4c-16.2,0-30.2,13.9-30.2,30.2v10.1H72.7v80.4h120.6v10.1c0,16.2,13.9,30.2,30.2,30.2h100.5
	c16.2,0,30.2-13.9,30.2-30.2v-10.1h361v-80.4h-361V431.4z M233.5,441.4h80.4v80.4h-80.4V441.4z"/>
<g>
	<path d="M354.1,40.2V30.2c0-16.2-13.9-30.2-30.2-30.2H223.4c-16.2,0-30.2,13.9-30.2,30.2v10.1H72.7v80.4h120.6v10.1
		c0,16.2,13.9,30.2,30.2,30.2h100.5c16.2,0,30.2-13.9,30.2-30.2v-10.1h361V40.2H354.1z M233.5,40.2h80.4v80.4h-80.4V40.2z
		 M594.5,231.2c0-16.2-13.9-30.2-30.2-30.2H463.9c-16.2,0-30.2,13.9-30.2,30.2v10.1h-361v80.4h361v10.1c0,16.2,13.9,30.2,30.2,30.2
		h100.5c16.2,0,30.2-13.9,30.2-30.2v-10.1h120.6v-80.4H594.5V231.2z M473.9,241.2h80.4v80.4h-80.4V241.2z M354.1,431.4
		c0-16.2-13.9-30.2-30.2-30.2H223.4c-16.2,0-30.2,13.9-30.2,30.2v10.1H72.7v80.4h120.6v10.1c0,16.2,13.9,30.2,30.2,30.2h100.5
		c16.2,0,30.2-13.9,30.2-30.2v-10.1h361v-80.4h-361V431.4z M233.5,441.4h80.4v80.4h-80.4V441.4z"/>
</g>
</svg>
