<?xml version="1.0" encoding="utf-8"?>
<!-- Generator: Adobe Illustrator 17.1.0, SVG Export Plug-In . SVG Version: 6.00 Build 0)  -->
<!DOCTYPE svg PUBLIC "-//W3C//DTD SVG 1.1//EN" "http://www.w3.org/Graphics/SVG/1.1/DTD/svg11.dtd">
<svg version="1.1" id="Calque_1" xmlns="http://www.w3.org/2000/svg" xmlns:xlink="http://www.w3.org/1999/xlink" x="0px" y="0px"
	 viewBox="0 0 91.1 91.2" enable-background="new 0 0 91.1 91.2" xml:space="preserve">
<g>
	<g opacity="0.75">
		<path fill="#231F20" d="M19.4,52.7v38.2c0.9,0.1,1.8,0.2,2.8,0.2h2.8V52.5h-2.8C21.2,52.5,20.3,52.6,19.4,52.7 M69.1,52.5v38.6
			h2.8c0.9,0,1.9-0.1,2.8-0.2V52.7c-0.9-0.1-1.8-0.2-2.8-0.2H69.1z M91.1,47C91.1,22.6,71.4,2.8,47,2.8C22.6,2.8,2.8,22.6,2.8,47
			c0,5.3,0.9,10.4,2.6,15.1c-1.7,2.9-2.6,6.2-2.6,9.8c0,7.7,4.5,14.4,11,17.5V54.4c-1.7,0.8-3.3,1.9-4.7,3.2
			c-0.5-2.5-0.8-5.1-0.8-7.8c0-21.3,17.3-38.6,38.6-38.6c21.3,0,38.6,17.3,38.6,38.6c0,2.7-0.3,5.3-0.8,7.8c-1.4-1.3-3-2.4-4.7-3.2
			v34.9c6.5-3.1,11-9.8,11-17.5c0-3.6-1-6.9-2.6-9.8C90.2,57.4,91.1,52.3,91.1,47"/>
	</g>
	<g>
		<path fill="#FFFFFF" d="M16.6,49.9v38.2c0.9,0.1,1.8,0.2,2.8,0.2h2.8V49.7h-2.8C18.4,49.7,17.5,49.7,16.6,49.9 M66.2,49.7v38.6H69
			c0.9,0,1.9-0.1,2.8-0.2V49.9c-0.9-0.1-1.8-0.2-2.8-0.2H66.2z M88.3,44.2C88.3,19.8,68.5,0,44.2,0C19.8,0,0,19.8,0,44.2
			c0,5.3,0.9,10.4,2.6,15.1C1,62.1,0,65.4,0,69c0,7.7,4.5,14.4,11,17.5V51.5c-1.7,0.8-3.3,1.9-4.7,3.2c-0.5-2.5-0.8-5.1-0.8-7.8
			c0-21.3,17.3-38.6,38.6-38.6c21.3,0,38.6,17.3,38.6,38.6c0,2.7-0.3,5.3-0.8,7.8c-1.4-1.3-3-2.4-4.7-3.2v34.9
			c6.5-3.1,11-9.8,11-17.5c0-3.6-1-6.9-2.6-9.8C87.4,54.5,88.3,49.5,88.3,44.2"/>
	</g>
</g>
</svg>
