<?xml version="1.0" encoding="utf-8"?>
<!-- Generator: Adobe Illustrator 17.1.0, SVG Export Plug-In . SVG Version: 6.00 Build 0)  -->
<!DOCTYPE svg PUBLIC "-//W3C//DTD SVG 1.1//EN" "http://www.w3.org/Graphics/SVG/1.1/DTD/svg11.dtd">
<svg version="1.1" id="Calque_1" xmlns="http://www.w3.org/2000/svg" xmlns:xlink="http://www.w3.org/1999/xlink" x="0px" y="0px"
	 viewBox="0 0 80.4 60.3" enable-background="new 0 0 80.4 60.3" xml:space="preserve">
<path fill="#FFFFFF" d="M30.2,12.6c0,6.9,5.6,12.6,12.6,12.6c6.9,0,12.6-5.6,12.6-12.6C55.3,5.6,49.7,0,42.7,0
	C35.8,0,30.2,5.6,30.2,12.6 M0,12.6c0,6.9,5.6,12.6,12.6,12.6c6.9,0,12.6-5.6,12.6-12.6C25.1,5.6,19.5,0,12.6,0C5.6,0,0,5.6,0,12.6
	 M60.3,37.7v-7.5c0-2.8-2.3-5-5-5H42.7H12.6H5c-2.8,0-5,2.3-5,5v25.1c0,2.8,2.3,5,5,5h50.3c2.8,0,5-2.3,5-5v-7.5l20.1,12.6V25.1
	L60.3,37.7z M50.3,50.3H10.1V35.2h40.2V50.3z"/>
</svg>
