<?xml version="1.0" encoding="utf-8"?>
<!-- Generator: Adobe Illustrator 17.1.0, SVG Export Plug-In . SVG Version: 6.00 Build 0)  -->
<!DOCTYPE svg PUBLIC "-//W3C//DTD SVG 1.1//EN" "http://www.w3.org/Graphics/SVG/1.1/DTD/svg11.dtd">
<svg version="1.1" id="Calque_1" xmlns="http://www.w3.org/2000/svg" xmlns:xlink="http://www.w3.org/1999/xlink" x="0px" y="0px"
	 viewBox="0 0 76.3 67.5" enable-background="new 0 0 76.3 67.5" xml:space="preserve">
<g>
	<g>
		<path fill="#FFFFFF" d="M72.3,12.8h-42l5.9-5.9c1.6-1.6,1.6-4.1,0-5.7c-1.6-1.6-4.1-1.6-5.7,0l-8.1,8.1l-8.1-8.1
			c-1.6-1.6-4.1-1.6-5.7,0c-1.6,1.6-1.6,4.1,0,5.7l5.9,5.9H4.1c-2.2,0-4.1,1.8-4.1,4.1v46.6c0,2.2,1.8,4.1,4.1,4.1h68.2
			c2.2,0,4-1.8,4-4.1V16.9C76.3,14.6,74.5,12.8,72.3,12.8L72.3,12.8z M58.4,59.4H8.1V20.9h50.3V59.4z M66.8,35.8
			c-2.9,0-5.3-2.4-5.3-5.3c0-2.9,2.4-5.3,5.3-5.3c2.9,0,5.3,2.4,5.3,5.3C72.1,33.4,69.7,35.8,66.8,35.8L66.8,35.8z M66.8,35.8"/>
	</g>
</g>
</svg>
